<?xml version="1.0" encoding="iso-8859-1"?>
<!-- Generator: Adobe Illustrator 19.0.0, SVG Export Plug-In . SVG Version: 6.00 Build 0)  -->
<svg version="1.1" id="Layer_1" xmlns="http://www.w3.org/2000/svg" xmlns:xlink="http://www.w3.org/1999/xlink" x="0px" y="0px"
	 viewBox="0 0 512 512" style="enable-background:new 0 0 512 512;" xml:space="preserve">
<circle style="fill:#71E2EF;" cx="256" cy="256" r="256"/>
<path style="fill:#38C6D9;" d="M345.069,124.983L256,206.891l18.963,262.873l72.126,25.536
	c86.328-32.88,150.273-111.116,162.701-205.596L345.069,124.983z"/>
<rect x="213.333" y="292.219" style="fill:#FCD088;" width="85.333" height="85.333"/>
<rect x="256.293" y="292.219" style="fill:#F2BB6B;" width="42.379" height="85.333"/>
<path style="fill:#474747;" d="M358.384,360.108l-45.496-9.099v-5.63c0-6.982-5.66-12.641-12.641-12.641h-88.493
	c-6.982,0-12.641,5.66-12.641,12.641v5.63l-45.496,9.099c-23.166,4.634-39.839,24.972-39.839,48.595v60.175
	C154.457,496.109,203.371,512,256,512s101.543-15.891,142.222-43.122v-60.175C398.222,385.081,381.549,364.742,358.384,360.108z"/>
<path style="fill:#282828;" d="M398.222,408.704c0-23.623-16.674-43.961-39.838-48.593l-45.496-9.099v-5.63
	c0-6.982-5.66-12.641-12.641-12.641h-43.96v179.259c52.519-0.059,101.329-15.934,141.934-43.117V408.704z"/>
<path style="fill:#FFEDB5;" d="M349.953,192.669c0,54.982-42.063,128-93.953,128s-93.953-73.016-93.953-128
	S204.11,93.113,256,93.113S349.953,137.687,349.953,192.669z"/>
<path style="fill:#F4DB95;" d="M349.953,192.669c0-54.881-41.91-99.383-93.665-99.549v227.543
	C308.045,320.393,349.953,247.551,349.953,192.669z"/>
<rect x="241.778" y="332.731" style="fill:#FFFFFF;" width="28.444" height="28.444"/>
<rect x="256.293" y="332.731" style="fill:#EAEAEA;" width="13.929" height="28.444"/>
<path style="fill:#634200;" d="M266.343,85.356c-106.594-1.724-142.796,93.953-113.778,149.98c0,0,2.091-1.815,5.379-4.986
	c4.344,11.335,10.973,22.214,20.911,25.65c0,0-9.188-21.395-5.284-42.344c14.693-17.411,30.818-42.372,25.54-63.653
	c0,0,43.506,51.61,140.959,56.772c7.845,22.854-3.477,49.226-3.477,49.226c17.365-6.003,24.65-34.714,27.231-48.907
	c1.967-0.05,3.949-0.114,5.954-0.202C369.778,206.891,372.938,87.08,266.343,85.356z"/>
<path style="fill:#513400;" d="M266.343,85.356c-3.425-0.055-6.775-0.007-10.056,0.134v102.624
	c21.459,9.145,49.209,16.829,83.782,18.66c7.845,22.854-3.477,49.226-3.477,49.226c17.365-6.003,24.65-34.714,27.231-48.907
	c1.967-0.05,3.949-0.114,5.954-0.202C369.778,206.891,372.938,87.08,266.343,85.356z"/>
<g>
</g>
<g>
</g>
<g>
</g>
<g>
</g>
<g>
</g>
<g>
</g>
<g>
</g>
<g>
</g>
<g>
</g>
<g>
</g>
<g>
</g>
<g>
</g>
<g>
</g>
<g>
</g>
<g>
</g>
</svg>
